<?xml version="1.0"?>
<svg xmlns:rdf="http://www.w3.org/1999/02/22-rdf-syntax-ns#" xmlns="http://www.w3.org/2000/svg" xmlns:cc="http://creativecommons.org/ns#" xmlns:dc="http://purl.org/dc/elements/1.1/" xmlns:svg="http://www.w3.org/2000/svg" id="svg4012" viewBox="0 0 569 402.77" version="1.1">
  <defs id="defs4014">
    <filter id="filter5796" color-interpolation-filters="sRGB">
      <feGaussianBlur id="feGaussianBlur5798" in="SourceAlpha" stdDeviation="2" result="result0"/>
      <feComposite id="feComposite5800" in="SourceGraphic" in2="result0" k3="10" k2="1" k1="0" result="result3" k4="0" operator="arithmetic"/>
      <feComposite id="feComposite5802" operator="in" in="result3" in2="result3" result="result4"/>
    </filter>
  </defs>
  <g id="layer1" transform="translate(4.3377 -15.781)">
    <g id="g5756" filter="url(#filter5796)">
      <path id="path5074" d="m517.24 88.147c-49.3-17.139-95.19-29.002-137.54-34.78l-14.29 48.393-14.86-51.431c-47.15-3.341-89.49 1.746-126.8 16.582l9.1333 61.158-48.778-40.379c-23.73 15.76-44.9 36.62-63.44 63.07l40.682 53.414-55.855-29.52c-12.488 21.73-23.553 46.49-33.153 74.52l34.363 35.07-40.833-15.08c-9.1473 30.285-16.752 64.022-22.788 101.4 38.79 4.409 74.739 8.1644 108.02 10.742l-0.61253-52.329 35.629 54.634c39.627 2.0831 75.136 1.9701 106.83-1.4391l-9.1239-53.742 55.307 45.653c32.079-8.1796 59.375-21.451 82.42-41.513l-37.796-57.807 62.024 32.164c16.826-21.447 30.781-48.157 42.163-81.157l-43.637-26.896 50.659 4.7003c9.4361-32.767 16.779-70.976 22.279-115.42l0.00001 0.000041z" fill="#450"/>
      <path id="path5103" fill="#112b00" d="m450.74 155.18c-127.81 3.94-230.76 75.02-328.39 160.43 89.55-114.91 198.42-170.2 328.39-160.43z"/>
      <path id="path5103-6" fill="#2d5016" d="m445.82 158.67c-128.97 13.12-228.65 78.23-322.08 154.43 83.44-99.25 227.48-173.33 322.08-154.43z"/>
      <path id="path5637" d="m229.76 70.823 11.62 90.357c-18.85-94.52 42.59-98.296 100.68-105.85-39.04-1.233-76.71 2.975-112.3 15.493z" fill="#2d5016"/>
      <path id="path5637-1" d="m128.01 154.35 42.808 46.749c-48.39-46.12-16.82-73.9 11.41-102.44-21.52 15.57-40.11 33.69-54.22 55.69z" fill="#2d5016"/>
      <path id="path5637-3" d="m385.13 59.849-31 86.821c25.61-93.643 89.97-71.147 152.72-53.483-39.17-17.589-79.53-29.669-121.72-33.338z" fill="#2d5016"/>
      <path id="path5637-8" d="m80.586 251.48 60.196 29.579c-65.726-26.93-42.714-65.32-23.4-103.25-16.85 22.93-29.796 47.24-36.794 73.67z" fill="#2d5016"/>
      <path id="path5679" d="m73.574 281.22c-8.055 26.8-18.939 50.76-20.652 83.9 27.335 10.07 59.958 4.28 90.358 5.16-102.82 0.16-70.468-50.37-69.706-89.06z" fill="#2d5016"/>
      <path id="path5637-5" d="m190.37 378.32-52.133-75.798c49.882 80.447 95.133 72.91 140.58 69.033-26.33 7.7581-55.341 10.834-88.444 6.7651z" fill="#2d5016"/>
      <path id="path5637-5-7" d="m340.94 365.27-67.64-55.14c67.292 60.417 102.18 37.373 138.42 17.801-19.206 16.669-42.146 29.745-70.784 37.337z" fill="#2d5016"/>
      <path id="path5637-5-7-4" d="m440.38 298.06-88.177-47.368c90.652 54.328 109.04 12.082 130.43-26.146-8.024 28.415-21.204 53.503-42.255 73.514z" fill="#2d5016"/>
      <path id="path5637-5-7-5" d="m488.3 198.23-58.095-12.073c59.885 19.303 70.524-41.967 83.213-99.884-4.3608 38.95-12.135 76.512-25.118 111.96z" fill="#2d5016"/>
    </g>
  </g>
  <metadata>
    <rdf:RDF>
      <cc:Work>
        <dc:format>image/svg+xml</dc:format>
        <dc:type rdf:resource="http://purl.org/dc/dcmitype/StillImage"/>
        <cc:license rdf:resource="http://creativecommons.org/licenses/publicdomain/"/>
        <dc:publisher>
          <cc:Agent rdf:about="http://openclipart.org/">
            <dc:title>Openclipart</dc:title>
          </cc:Agent>
        </dc:publisher>
        <dc:title>Jungle Leaf</dc:title>
        <dc:date>2010-09-25T04:25:17</dc:date>
        <dc:description>Jungle style leaf.</dc:description>
        <dc:source>http://openclipart.org/detail/86593/jungle-leaf-by-stevepetmonkey</dc:source>
        <dc:creator>
          <cc:Agent>
            <dc:title>stevepetmonkey</dc:title>
          </cc:Agent>
        </dc:creator>
        <dc:subject>
          <rdf:Bag>
            <rdf:li>Jungle</rdf:li>
            <rdf:li>Jungle Leaf</rdf:li>
            <rdf:li>Leaf</rdf:li>
            <rdf:li>Palm</rdf:li>
            <rdf:li>Palm Leaf</rdf:li>
            <rdf:li>Plant</rdf:li>
            <rdf:li>clip art</rdf:li>
            <rdf:li>clipart</rdf:li>
          </rdf:Bag>
        </dc:subject>
      </cc:Work>
      <cc:License rdf:about="http://creativecommons.org/licenses/publicdomain/">
        <cc:permits rdf:resource="http://creativecommons.org/ns#Reproduction"/>
        <cc:permits rdf:resource="http://creativecommons.org/ns#Distribution"/>
        <cc:permits rdf:resource="http://creativecommons.org/ns#DerivativeWorks"/>
      </cc:License>
    </rdf:RDF>
  </metadata>
</svg>
